# Blender v2.78 (sub 0) OBJ File: ''
# www.blender.org
mtllib book2.mtl
o book2_obj0
v 0.169373 0.877482 0.420725
v -0.404089 1.085508 0.070842
v 0.095987 0.810063 0.466539
v -0.330703 1.152927 0.025028
v -0.347236 1.172640 0.027554
v -0.173098 0.585594 -0.601162
v -0.185329 0.574358 -0.593527
v -0.335005 1.183877 0.019919
v -0.258715 0.506939 -0.547713
v 0.251148 0.236709 -0.128664
v 0.254521 0.224245 -0.141603
v -0.248928 0.512155 -0.524361
v -0.404089 1.085508 0.070842
v 0.092614 0.822527 0.479478
v 0.095987 0.810063 0.466539
v -0.420621 1.105221 0.073368
v -0.432852 1.093985 0.081003
v -0.258715 0.506939 -0.547713
v -0.270946 0.495702 -0.540078
v -0.420621 1.105221 0.073368
v -0.347236 1.172640 0.027554
v 0.169373 0.877482 0.420725
v 0.166000 0.889946 0.433664
v -0.330703 1.152927 0.025028
v -0.175542 0.579573 -0.570174
v 0.327907 0.291664 -0.187417
v 0.324534 0.304128 -0.174477
v -0.185329 0.574358 -0.593527
v -0.175542 0.579573 -0.570174
v -0.248928 0.512155 -0.524361
v 0.092614 0.822527 0.479478
v 0.169373 0.877482 0.420725
v 0.095987 0.810063 0.466539
v 0.166000 0.889946 0.433664
v -0.173098 0.585594 -0.601162
v 0.327907 0.291664 -0.187417
v -0.185329 0.574358 -0.593527
v -0.258715 0.506939 -0.547713
v 0.255450 0.205760 -0.123554
v -0.270946 0.495702 -0.540078
v 0.254521 0.224245 -0.141603
v 0.353298 0.295652 -0.184639
v 0.251148 0.236709 -0.128664
v 0.327907 0.291664 -0.187417
v 0.254521 0.224245 -0.141603
v 0.324534 0.304128 -0.174477
v -0.432852 1.093985 0.081003
v 0.255450 0.205760 -0.123554
v 0.093543 0.804042 0.497526
v -0.270946 0.495702 -0.540078
v 0.353298 0.295652 -0.184639
v 0.093543 0.804042 0.497526
v 0.191391 0.893934 0.436442
v -0.175542 0.579573 -0.570174
v 0.251148 0.236709 -0.128664
v -0.248928 0.512155 -0.524361
v 0.324534 0.304128 -0.174477
v -0.173098 0.585594 -0.601162
v 0.191391 0.893934 0.436442
v 0.353298 0.295652 -0.184639
v -0.335005 1.183877 0.019919
v 0.093543 0.804042 0.497526
v 0.092614 0.822527 0.479478
v -0.432852 1.093985 0.081003
v 0.191391 0.893934 0.436442
v 0.166000 0.889946 0.433664
v -0.347236 1.172640 0.027554
v -0.335005 1.183877 0.019919
v -0.420621 1.105221 0.073368
vt 0.9687 0.0020
vt 0.4869 0.1240
vt 0.9687 0.1240
vt 0.7293 0.6240
vt 0.8475 0.1270
vt 0.8475 0.6240
vt 0.4869 0.7490
vt 0.9687 0.7208
vt 0.9687 0.7490
vt 0.9677 0.7198
vt 0.4858 0.7480
vt 0.4858 0.7198
vt 0.9990 0.0020
vt 0.9717 0.4990
vt 0.9990 0.4990
vt 0.4869 0.6865
vt 0.9687 0.6583
vt 0.9687 0.6865
vt 0.9687 0.6240
vt 0.9414 0.6240
vt 0.9687 0.1270
vt 0.4869 0.8115
vt 0.9687 0.7833
vt 0.9687 0.8115
vt 0.9990 0.5020
vt 0.9990 0.9990
vt 0.9717 0.9990
vt 0.9687 0.7520
vt 0.9687 0.7802
vt 0.4869 0.7802
vt 0.8778 0.1270
vt 0.8505 0.6240
vt 0.8778 0.6240
vt 0.8495 0.6230
vt 0.8768 0.1260
vt 0.8495 0.1260
vt 0.9384 0.1270
vt 0.9111 0.6240
vt 0.9384 0.6240
vt 0.9677 0.6573
vt 0.4858 0.6855
vt 0.4858 0.6573
vt 0.9404 0.1260
vt 0.9677 0.1260
vt 0.9404 0.6230
vt 0.9677 0.7823
vt 0.4858 0.8105
vt 0.4858 0.7823
vt 0.9707 0.9980
vt 0.9707 0.5010
vt 0.9980 0.5010
vt 0.4858 0.7792
vt 0.4858 0.7510
vt 0.9677 0.7510
vt 0.6051 0.1270
vt 0.4869 0.6240
vt 0.6051 0.6240
vt 0.4858 0.6230
vt 0.6041 0.1260
vt 0.4858 0.1260
vt 0.6354 0.8458
vt 0.5172 0.8740
vt 0.6354 0.8740
vt 0.5162 0.8730
vt 0.6344 0.8448
vt 0.5162 0.8448
vt 0.9374 0.1260
vt 0.9101 0.6230
vt 0.9101 0.1260
vt 0.9687 0.6895
vt 0.4869 0.7177
vt 0.9687 0.7177
vt 0.8808 0.6240
vt 0.9081 0.1270
vt 0.9081 0.6240
vt 0.4869 0.9365
vt 0.5142 0.9365
vt 0.5142 0.8145
vt 0.6354 0.8145
vt 0.5172 0.8427
vt 0.6354 0.8427
vt 0.9687 0.6270
vt 0.9687 0.6552
vt 0.4869 0.6552
vt 0.7566 0.8145
vt 0.6384 0.8427
vt 0.7566 0.8427
vt 0.6374 0.8417
vt 0.7556 0.8135
vt 0.6374 0.8135
vt 0.0020 0.4990
vt 0.4838 0.0020
vt 0.4838 0.4990
vt 0.4828 0.0010
vt 0.0010 0.4980
vt 0.0010 0.0010
vt 0.6081 0.6240
vt 0.7263 0.1270
vt 0.7263 0.6240
vt 0.7253 0.1260
vt 0.6071 0.6230
vt 0.6071 0.1260
vt 0.4858 0.1230
vt 0.9677 0.0010
vt 0.4858 0.0010
vt 0.8465 0.1260
vt 0.7283 0.6230
vt 0.7283 0.1260
vt 0.0020 0.9990
vt 0.4838 0.5020
vt 0.4838 0.9990
vt 0.4828 0.5010
vt 0.0010 0.9980
vt 0.0010 0.5010
vt 0.4858 0.6542
vt 0.4858 0.6260
vt 0.9677 0.6260
vt 0.4858 0.8135
vt 0.5131 0.8135
vt 0.4858 0.9355
vt 0.6344 0.8135
vt 0.5162 0.8417
vt 0.5162 0.8135
vt 0.8798 0.1260
vt 0.9071 0.1260
vt 0.8798 0.6230
vt 0.4858 0.7167
vt 0.9677 0.6885
vt 0.4858 0.6885
vt 0.9707 0.0010
vt 0.9980 0.0010
vt 0.9707 0.4980
vn -0.1845 0.6819 0.7078
vn -0.7199 0.3965 -0.5696
vn 0.6691 0.6147 -0.4177
vn -0.6691 -0.6147 0.4177
vn 0.1845 -0.6819 -0.7078
vn 0.7199 -0.3965 0.5696
vn -0.1845 0.6818 0.7078
usemtl Bake
s off
f 1/1/1 2/2/1 3/3/1
f 2/4/1 1/5/1 4/6/1
f 5/7/2 6/8/2 7/9/2
f 6/10/2 5/11/2 8/12/2
f 9/13/3 10/14/3 11/15/3
f 10/16/3 9/17/3 12/18/3
f 12/19/3 9/20/3 13/21/3
f 13/22/3 14/23/3 15/24/3
f 14/25/3 13/26/3 16/27/3
f 16/28/3 13/29/3 9/30/3
f 17/31/2 18/32/2 19/33/2
f 18/34/2 17/35/2 20/36/2
f 21/37/4 22/38/4 23/39/4
f 22/40/4 21/41/4 24/42/4
f 24/43/4 21/44/4 25/45/4
f 25/46/4 26/47/4 27/48/4
f 26/49/4 25/50/4 28/51/4
f 28/52/4 25/53/4 21/54/4
f 2/55/2 29/56/2 30/57/2
f 29/58/2 2/59/2 4/60/2
f 31/61/2 32/62/2 33/63/2
f 32/64/2 31/65/2 34/66/2
f 35/67/5 36/68/5 37/69/5
f 38/70/5 39/71/5 40/72/5
f 39/73/5 38/74/5 41/75/5
f 39/76/5 41/77/5 42/78/5
f 42/79/5 41/80/5 36/81/5
f 42/82/5 36/83/5 35/84/5
f 43/85/2 44/86/2 45/87/2
f 44/88/2 43/89/2 46/90/2
f 47/91/4 48/92/4 49/93/4
f 48/94/4 47/95/4 50/96/4
f 51/97/6 52/98/6 39/99/6
f 52/100/6 51/101/6 53/102/6
f 54/103/5 55/104/5 56/105/5
f 55/106/5 54/107/5 57/108/5
f 58/109/3 59/110/3 60/111/3
f 59/112/3 58/113/3 61/114/3
f 62/115/1 63/116/1 64/117/1
f 63/118/1 62/119/1 65/120/1
f 63/121/1 65/122/1 66/123/1
f 66/124/7 65/125/7 67/126/7
f 67/127/1 65/128/1 68/129/1
f 69/130/7 64/131/7 63/132/7
